<?xml version="1.0" encoding="UTF-8" standalone="no"?>
<svg
   xmlns:dc="http://purl.org/dc/elements/1.1/"
   xmlns:cc="http://creativecommons.org/ns#"
   xmlns:rdf="http://www.w3.org/1999/02/22-rdf-syntax-ns#"
   xmlns:svg="http://www.w3.org/2000/svg"
   xmlns="http://www.w3.org/2000/svg"
   xmlns:sodipodi="http://sodipodi.sourceforge.net/DTD/sodipodi-0.dtd"
   xmlns:inkscape="http://www.inkscape.org/namespaces/inkscape"
   viewBox="0 0 50 50"
   version="1.1"
   width="50px"
   height="50px"
   id="svg5"
   sodipodi:docname="icon.svg"
   inkscape:version="0.92.2 (5c3e80d, 2017-08-06)"
   inkscape:export-filename="C:\Users\Mathias\git\Notenberechnung\Notenberechnung\src\gui\icon.png"
   inkscape:export-xdpi="95.974213"
   inkscape:export-ydpi="95.974213">
  <metadata
     id="metadata11">
    <rdf:RDF>
      <cc:Work
         rdf:about="">
        <dc:format>image/svg+xml</dc:format>
        <dc:type
           rdf:resource="http://purl.org/dc/dcmitype/StillImage" />
        <dc:title />
      </cc:Work>
    </rdf:RDF>
  </metadata>
  <defs
     id="defs9" />
  <sodipodi:namedview
     pagecolor="#ffffff"
     bordercolor="#666666"
     borderopacity="1"
     objecttolerance="10"
     gridtolerance="10"
     guidetolerance="10"
     inkscape:pageopacity="0"
     inkscape:pageshadow="2"
     inkscape:window-width="1920"
     inkscape:window-height="1027"
     id="namedview7"
     showgrid="false"
     inkscape:zoom="4.72"
     inkscape:cx="-43.855932"
     inkscape:cy="25"
     inkscape:window-x="-8"
     inkscape:window-y="-8"
     inkscape:window-maximized="1"
     inkscape:current-layer="svg5" />
  <rect
     style="opacity:1;fill:#ffffff;fill-opacity:1;fill-rule:nonzero;stroke:none;stroke-width:1.37485278;stroke-linecap:round;stroke-linejoin:round;stroke-miterlimit:4;stroke-dasharray:none;stroke-opacity:1"
     id="rect4506"
     width="50.211864"
     height="49.788136"
     x="-0.21186467"
     y="8.0819859e-008" />
  <g
     id="surface1"
     transform="matrix(0.79234707,0,0,0.79234707,5.3021128,9.956073)"
     style="fill:#008000">
    <path
       d="m 28.875,0 c -0.01953,0.0078125 -0.04297,0.0195313 -0.0625,0.03125 l -28,5.3125 C 0.335938,5.433594 -0.0078125,5.855469 0,6.34375 v 37.3125 c -0.0078125,0.488281 0.335938,0.910156 0.8125,1 l 28,5.3125 c 0.289063,0.05469 0.589844,-0.01953 0.820313,-0.207031 C 29.859375,49.574219 29.996094,49.296875 30,49 v -5 h 17 c 1.09375,0 2,-0.90625 2,-2 V 8 C 49,6.90625 48.09375,6 47,6 H 30 V 1 C 30.003906,0.710938 29.878906,0.4375 29.664063,0.246094 29.449219,0.0546875 29.160156,-0.0351563 28.875,0 Z M 28,2.1875 v 4.34375 c -0.132812,0.277344 -0.132812,0.597656 0,0.875 V 42.8125 c -0.02734,0.132813 -0.02734,0.273438 0,0.40625 V 47.8125 L 2,42.84375 V 7.15625 Z M 30,8 H 47 V 42 H 30 v -5 h 4 v -2 h -4 v -6 h 4 v -2 h -4 v -5 h 4 v -2 h -4 v -5 h 4 v -2 h -4 z m 6,5 v 2 h 8 V 13 Z M 6.6875,15.6875 12.15625,25.03125 6.1875,34.375 h 5 l 3.25,-6.03125 c 0.226563,-0.582031 0.375,-1.027344 0.4375,-1.3125 h 0.03125 c 0.128906,0.609375 0.253906,1.023438 0.375,1.25 l 3.25,6.09375 H 23.5 l -5.75,-9.4375 5.59375,-9.25 h -4.6875 l -2.96875,5.53125 c -0.285156,0.722656 -0.488281,1.292969 -0.59375,1.65625 H 15.0625 C 14.898438,22.265625 14.710938,21.722656 14.5,21.28125 L 11.8125,15.6875 Z M 36,20 v 2 h 8 v -2 z m 0,7 v 2 h 8 v -2 z m 0,8 v 2 h 8 v -2 z"
       id="path2"
       inkscape:connector-curvature="0"
       style="fill:#008000" />
  </g>
  <g
     transform="translate(2.0677966e-7,-2.8267419)"
     id="surface1-2"
     style="fill:#008000">
    <path
       inkscape:connector-curvature="0"
       d="m 24.875,3 c -0.109375,0.015625 -0.214844,0.046875 -0.3125,0.09375 l -24,12 c -0.5,0.242188 -0.710938,0.84375 -0.46875,1.34375 0.242188,0.5 0.84375,0.710938 1.34375,0.46875 L 25,5.125 48.5625,16.90625 c 0.5,0.242188 1.101563,0.03125 1.34375,-0.46875 0.242188,-0.5 0.03125,-1.101562 -0.46875,-1.34375 l -24,-12 C 25.261719,3.007813 25.066406,2.976563 24.875,3 Z"
       id="path2-0"
       sodipodi:nodetypes="cccsccccccc"
       style="fill:#008000" />
  </g>
</svg>
